<svg width="293" height="70" viewBox="0 0 293 70" fill="none" xmlns="http://www.w3.org/2000/svg">
<path d="M49.9023 41.8164C50.7682 43.6393 51.2012 45.485 51.2012 47.3535C51.2012 49.1764 50.7454 50.9993 49.834 52.8223C48.9225 54.5996 47.4414 56.1947 45.3906 57.6074C43.3398 58.9746 40.7194 59.6582 37.5293 59.6582H37.1191C36.8457 59.7038 36.5723 59.7266 36.2988 59.7266H8.81836C7.58789 59.681 6.53971 59.248 5.67383 58.4277C4.85352 57.5618 4.42057 56.5137 4.375 55.2832V23.9746C4.42057 22.7441 4.85352 21.7188 5.67383 20.8984C6.53971 20.0326 7.58789 19.5768 8.81836 19.5312H32.334C32.6074 19.5312 32.8809 19.554 33.1543 19.5996H33.5645C36.7546 19.6908 39.375 20.4199 41.4258 21.7871C43.4766 23.1543 44.9577 24.7266 45.8691 26.5039C46.7806 28.2357 47.2363 29.9902 47.2363 31.7676C47.2363 33.5905 46.8034 35.3678 45.9375 37.0996C45.8919 37.1908 45.8464 37.2591 45.8008 37.3047C47.6693 38.6263 49.0365 40.1302 49.9023 41.8164ZM37.9395 50.5664C38.8053 50.612 39.5117 50.4525 40.0586 50.0879C40.651 49.7233 41.084 49.3132 41.3574 48.8574C41.6309 48.3561 41.7676 47.8548 41.7676 47.3535C41.7676 47.0345 41.6309 46.6016 41.3574 46.0547C41.084 45.4622 40.651 44.9837 40.0586 44.6191C39.5117 44.2546 38.8053 44.0495 37.9395 44.0039H33.5645H13.6035V48.7207C13.6035 49.9512 14.2415 50.5664 15.5176 50.5664H16.0645H37.9395ZM36.1621 34.2285C36.709 33.9095 37.1191 33.5449 37.3926 33.1348C37.666 32.679 37.8027 32.2233 37.8027 31.7676C37.8027 31.3118 37.666 30.8789 37.3926 30.4688C37.1191 30.013 36.6862 29.6257 36.0938 29.3066C35.5469 28.9421 34.8405 28.737 33.9746 28.6914H15.5176C14.2415 28.6914 13.6035 29.3066 13.6035 30.5371V34.8438H33.9746C34.8405 34.7982 35.5697 34.5931 36.1621 34.2285ZM73.623 49.2676C73.623 47.9915 74.056 46.9206 74.9219 46.0547C75.8333 45.1432 76.9271 44.6875 78.2031 44.6875H88.6621L86.8848 39.6289C86.1556 37.7604 85.4264 36.0059 84.6973 34.3652C84.0137 32.679 83.2161 31.1523 82.3047 29.7852C81.4844 28.418 80.5501 27.6888 79.502 27.5977C78.4082 27.6888 77.4284 28.418 76.5625 29.7852C75.6966 31.1523 74.8991 32.679 74.1699 34.3652C73.4863 36.0059 72.7799 37.7604 72.0508 39.6289L65.5566 57.4023C65.1009 58.3594 64.5085 59.1569 63.7793 59.7949C63.0957 60.3874 62.0475 60.6836 60.6348 60.6836C59.3132 60.6836 58.2194 60.2279 57.3535 59.3164C56.5332 58.4049 56.1686 57.3112 56.2598 56.0352C56.3053 55.4427 56.4421 54.8958 56.6699 54.3945L64.1895 34.9805C66.2858 29.8763 68.3822 25.752 70.4785 22.6074C72.5293 19.5085 75.5371 17.9362 79.502 17.8906C83.4212 17.9362 86.4062 19.5085 88.457 22.6074C90.5534 25.6608 92.6497 29.7852 94.7461 34.9805L102.266 54.3945C102.493 54.8958 102.63 55.4427 102.676 56.0352C102.767 57.3112 102.38 58.4049 101.514 59.3164C100.693 60.2279 99.6224 60.6836 98.3008 60.6836C96.7969 60.6836 95.6803 60.3874 94.9512 59.7949C94.2676 59.1569 93.6979 58.3594 93.2422 57.4023L91.9434 53.8477H78.2031C76.9271 53.8477 75.8561 53.3919 74.9902 52.4805C74.0788 51.6146 73.623 50.5436 73.623 49.2676ZM108.213 24.1113C108.213 22.8353 108.646 21.7643 109.512 20.8984C110.423 19.987 111.517 19.5312 112.793 19.5312H152.578C153.854 19.5312 154.948 19.9642 155.859 20.8301C156.725 21.7415 157.158 22.8353 157.158 24.1113C157.158 25.3874 156.702 26.4811 155.791 27.3926C154.925 28.2585 153.854 28.6914 152.578 28.6914H137.334V56.377C137.061 59.1113 135.557 60.5924 132.822 60.8203C131.546 60.8203 130.43 60.4102 129.473 59.5898C128.561 58.724 128.105 57.653 128.105 56.377V28.6914H112.793C111.517 28.6914 110.446 28.2357 109.58 27.3242C108.669 26.4583 108.213 25.3874 108.213 24.1113ZM201.045 19.5312C203.369 19.5768 205.443 20.306 207.266 21.7188C209.089 23.1315 210.547 24.8177 211.641 26.7773C212.78 28.737 213.623 30.8105 214.17 32.998C214.717 35.1855 214.99 37.4186 214.99 39.6973C214.99 42.7051 214.512 45.6673 213.555 48.584C212.643 51.4551 211.117 54.0072 208.975 56.2402C206.878 58.4733 204.235 59.681 201.045 59.8633H177.188C173.997 59.7266 171.331 58.5417 169.189 56.3086C167.048 54.0755 165.521 51.5007 164.609 48.584C163.743 45.6673 163.311 42.7051 163.311 39.6973C163.311 36.6895 163.766 33.75 164.678 30.8789C165.589 27.9622 167.093 25.3874 169.189 23.1543C171.331 20.8757 173.997 19.668 177.188 19.5312H178.486H199.746H201.045ZM198.721 50.7031C200.452 50.612 201.888 49.974 203.027 48.7891C204.212 47.5586 205.055 46.1458 205.557 44.5508C206.058 42.9557 206.309 41.3379 206.309 39.6973C206.309 38.0566 206.035 36.4616 205.488 34.9121C204.987 33.3171 204.167 31.9043 203.027 30.6738C201.888 29.4434 200.452 28.7826 198.721 28.6914H179.307C177.575 28.7826 176.139 29.4434 175 30.6738C173.861 31.9043 173.018 33.3171 172.471 34.9121C171.969 36.4616 171.719 38.0566 171.719 39.6973C171.719 41.3379 171.969 42.9557 172.471 44.5508C172.972 46.1458 173.792 47.5586 174.932 48.7891C176.117 49.974 177.575 50.612 179.307 50.7031H198.721ZM244.248 17.6855C246.618 17.6855 248.942 17.959 251.221 18.5059C253.545 19.0527 255.755 19.873 257.852 20.9668C259.948 22.015 261.794 23.4277 263.389 25.2051C265.029 26.9824 265.918 29.1016 266.055 31.5625V34.4336V56.2402C265.781 58.9746 264.277 60.4557 261.543 60.6836C260.267 60.6836 259.15 60.2734 258.193 59.4531C257.282 58.5872 256.826 57.5163 256.826 56.2402V33.6816C256.735 32.2689 256.188 31.1068 255.186 30.1953C254.229 29.2383 253.135 28.4863 251.904 27.9395C250.719 27.3926 249.466 26.9824 248.145 26.709C246.868 26.4355 245.57 26.2988 244.248 26.2988C242.926 26.2988 241.605 26.4355 240.283 26.709C239.007 26.9824 237.754 27.3926 236.523 27.9395C235.339 28.4863 234.245 29.2383 233.242 30.1953C232.285 31.1068 231.761 32.2689 231.67 33.6816V56.2402C231.442 58.9746 229.961 60.4557 227.227 60.6836C225.951 60.6836 224.834 60.2734 223.877 59.4531C222.965 58.5872 222.51 57.5163 222.51 56.2402V34.4336V31.5625C222.646 29.1016 223.512 26.9824 225.107 25.2051C226.702 23.4277 228.548 22.015 230.645 20.9668C232.741 19.873 234.928 19.0527 237.207 18.5059C239.531 17.959 241.878 17.6855 244.248 17.6855Z" fill="#B40C0F"/>
<path d="M272.945 60.1641C272.633 60.1641 272.371 60.0547 272.16 59.8359C271.957 59.6172 271.855 59.3438 271.855 59.0156C271.855 58.6875 271.957 58.4141 272.16 58.1953C272.371 57.9766 272.633 57.8672 272.945 57.8672C273.258 57.8672 273.52 57.9766 273.73 58.1953C273.941 58.4141 274.047 58.6875 274.047 59.0156C274.047 59.3438 273.941 59.6172 273.73 59.8359C273.52 60.0547 273.258 60.1641 272.945 60.1641ZM283.211 53.8477C283.211 54.0664 283.133 54.25 282.977 54.3984C282.828 54.5547 282.645 54.6328 282.426 54.6328H277.738C277.59 54.6406 277.465 54.6758 277.363 54.7383C277.27 54.793 277.199 54.8594 277.152 54.9375C277.105 55.0078 277.082 55.082 277.082 55.1602C277.082 55.2383 277.105 55.3164 277.152 55.3945C277.199 55.4648 277.27 55.5312 277.363 55.5938C277.465 55.6484 277.59 55.6797 277.738 55.6875H281.066C281.613 55.7031 282.062 55.832 282.414 56.0742C282.773 56.3086 283.027 56.582 283.176 56.8945C283.332 57.1992 283.41 57.5117 283.41 57.832C283.41 58.1445 283.332 58.457 283.176 58.7695C283.02 59.0742 282.766 59.3477 282.414 59.5898C282.062 59.8242 281.613 59.9414 281.066 59.9414H280.996C280.949 59.9492 280.902 59.9531 280.855 59.9531H276.426C276.207 59.9531 276.02 59.8789 275.863 59.7305C275.715 59.5742 275.641 59.3867 275.641 59.168C275.641 58.9492 275.719 58.7656 275.875 58.6172C276.023 58.4609 276.207 58.3828 276.426 58.3828H281.137C281.285 58.3906 281.406 58.3633 281.5 58.3008C281.602 58.2383 281.676 58.168 281.723 58.0898C281.77 58.0039 281.793 57.918 281.793 57.832C281.793 57.7773 281.77 57.7031 281.723 57.6094C281.676 57.5078 281.602 57.4258 281.5 57.3633C281.406 57.3008 281.285 57.2656 281.137 57.2578H277.809C277.262 57.2422 276.809 57.1172 276.449 56.8828C276.098 56.6484 275.844 56.3828 275.688 56.0859C275.539 55.7812 275.465 55.4727 275.465 55.1602C275.465 54.8555 275.543 54.5547 275.699 54.2578C275.855 53.9531 276.109 53.6836 276.461 53.4492C276.812 53.2148 277.262 53.0898 277.809 53.0742H277.879C277.926 53.0664 277.973 53.0625 278.02 53.0625H282.426C282.645 53.0625 282.828 53.1406 282.977 53.2969C283.133 53.4453 283.211 53.6289 283.211 53.8477ZM286.902 53.0625H287.441H291.426C291.645 53.0703 291.824 53.1523 291.965 53.3086C292.113 53.4648 292.188 53.6523 292.188 53.8711C292.148 54.3398 291.895 54.5938 291.426 54.6328H287.301C287.004 54.6484 286.758 54.7617 286.562 54.9727C286.367 55.1836 286.223 55.4258 286.129 55.6992C286.043 55.9648 286 56.2383 286 56.5195C286 56.8008 286.043 57.0781 286.129 57.3516C286.223 57.6172 286.367 57.8555 286.562 58.0664C286.758 58.2773 287.004 58.3906 287.301 58.4062H291.426C291.645 58.4141 291.824 58.4961 291.965 58.6523C292.113 58.8086 292.188 58.9961 292.188 59.2148C292.18 59.4258 292.102 59.6055 291.953 59.7539C291.812 59.8945 291.637 59.9688 291.426 59.9766H287.125H286.902C286.355 59.9453 285.902 59.7383 285.543 59.3555C285.191 58.9648 284.938 58.5234 284.781 58.0312C284.633 57.5391 284.559 57.0352 284.559 56.5195C284.559 56.0039 284.637 55.5 284.793 55.0078C284.949 54.5156 285.203 54.0781 285.555 53.6953C285.906 53.3047 286.355 53.0938 286.902 53.0625ZM292.164 56.4727C292.164 56.6914 292.086 56.875 291.93 57.0234C291.781 57.1797 291.598 57.2578 291.379 57.2578H287.84C287.621 57.2578 287.434 57.1836 287.277 57.0352C287.129 56.8789 287.055 56.6914 287.055 56.4727C287.055 56.2539 287.129 56.0664 287.277 55.9102C287.434 55.7617 287.621 55.6875 287.84 55.6875H291.379C291.598 55.6875 291.781 55.7656 291.93 55.9219C292.086 56.0703 292.164 56.2539 292.164 56.4727Z" fill="#D9D9D9"/>
</svg>
