<svg width="46" height="32" viewBox="0 0 46 32" fill="none" xmlns="http://www.w3.org/2000/svg">
<path d="M33.728 3.01047C33.9915 3.80085 34.2284 4.59206 34.4409 5.38351L34.772 5.30734L40.5112 3.98215L41.9116 3.65891L42.2349 5.05832L43.1177 8.88449L43.4409 10.2849L42.0415 10.6081L36.6831 11.8445H43.6187V18.6452H36.6831L42.0415 19.8816L43.4409 20.2048L43.1177 21.6052L42.2349 25.4314L41.9116 26.8308L40.5112 26.5075L34.772 25.1823L34.4409 25.1052C34.2284 25.8969 33.9916 26.6885 33.728 27.4792L33.3071 28.7419L32.0171 28.4187L22.5444 26.0495C21.5563 28.6091 19.0757 30.4255 16.1675 30.4255C12.5316 30.4255 9.55973 27.5873 9.34424 24.0046L9.34229 23.9831V23.9607L9.33252 23.6325L9.33154 23.6111V23.2195L8.66162 23.153L2.77197 22.5642L1.47803 22.4353V8.05441L2.77197 7.92551L8.66162 7.33664L9.33154 7.26926L10.6255 7.13937L12.4868 6.95285L32.0171 2.07101L33.3071 1.74777L33.728 3.01047Z" fill="#666666" stroke="white" stroke-width="2.87324"/>
</svg>
