<svg width="41" height="36" viewBox="0 0 41 36" fill="none" xmlns="http://www.w3.org/2000/svg">
<path d="M14.2777 33.9026V26.4404L17.7358 26.8044C18.7425 26.7485 19.6952 26.331 20.4188 25.6288C21.1424 24.9267 21.5882 23.9869 21.6743 22.9823V12.608C21.6864 9.98597 20.6564 7.46651 18.8108 5.6039C16.9653 3.74129 14.4554 2.68811 11.8334 2.67604C9.2113 2.66397 6.69184 3.69401 4.82923 5.53955C2.96662 7.38509 1.91343 9.89497 1.90137 12.517C1.90137 17.6132 3.09532 18.0754 3.72141 20.7982C4.14239 22.4429 4.16049 24.1648 3.77419 25.8179L1.90137 33.9026M34.2982 29.8985C36.8568 27.3395 38.2947 23.8693 38.2957 20.2506C38.2968 16.6319 36.8609 13.1609 34.3037 10.6005M29.2021 24.8023C29.7975 24.207 30.2691 23.4995 30.5894 22.7208C30.9097 21.942 31.0724 21.1075 31.0682 20.2655C31.064 19.4235 30.8929 18.5906 30.5647 17.8151C30.2366 17.0397 29.758 16.3369 29.1566 15.7476" stroke="white" stroke-width="3.64009" stroke-linecap="round" stroke-linejoin="round"/>
</svg>
