<svg width="36" height="35" viewBox="0 0 36 35" fill="none" xmlns="http://www.w3.org/2000/svg">
<path d="M12.9263 1.5325C13.5562 1.32918 14.1985 1.37025 14.7964 1.6282L14.7954 1.62918L18.0415 3.00125L21.2886 1.6282V1.62723C21.885 1.3716 22.5257 1.33054 23.1538 1.53152C23.7028 1.70729 24.1515 2.03894 24.4819 2.48856L24.6167 2.68875L24.6216 2.69754L24.6265 2.70535L26.4351 5.76004L29.8589 6.50809L29.8579 6.50906C30.5159 6.64559 31.066 7.00452 31.4575 7.5491C31.8431 8.08547 32.0096 8.7121 31.9321 9.37234L31.9341 9.37332L31.5903 12.8997L33.9341 15.5862L33.9321 15.5872C34.3684 16.0758 34.5952 16.6748 34.5952 17.3284C34.5952 17.9818 34.3681 18.5801 33.9321 19.0686L33.9341 19.0706L31.5903 21.7561L31.9341 25.2835H31.9321C32.0098 25.9441 31.8437 26.5714 31.4575 27.1087C31.0661 27.6532 30.516 28.0122 29.8579 28.1477L29.8589 28.1487L26.4351 28.8958L24.6265 31.9514L24.6216 31.9602L24.6157 31.969C24.2771 32.5193 23.7816 32.9225 23.1567 33.1243C22.5267 33.3277 21.8836 33.2866 21.2856 33.0286V33.0276L18.0415 31.6546L14.7925 33.0286L14.7935 33.0296C14.1971 33.2851 13.5572 33.3262 12.9292 33.1253C12.3014 32.9244 11.804 32.52 11.4653 31.968L11.4604 31.9593L11.4556 31.9514L9.64697 28.8958L6.22314 28.1487V28.1468C5.56721 28.0103 5.01807 27.6535 4.62646 27.1106C4.23854 26.5727 4.07142 25.9441 4.14893 25.2835H4.14795L4.4917 21.7561L2.14893 19.0706L2.1499 19.0696C1.71371 18.5811 1.48683 17.982 1.48682 17.3284C1.48682 16.6746 1.71341 16.0749 2.1499 15.5862H2.14893L4.4917 12.8997L4.14795 9.37332L4.1499 9.37234C4.07252 8.71202 4.2394 8.08522 4.62549 7.54813C5.01663 7.00401 5.56565 6.64484 6.22314 6.50906V6.50809L9.64697 5.76004L11.4556 2.70535L11.4614 2.69656L11.4663 2.68777C11.805 2.13747 12.3013 1.73427 12.9263 1.5325ZM22.5259 14.097C22.5229 14.0981 22.5009 14.1066 22.4614 14.1458L16.5415 20.0657L15.6714 19.2112L13.5903 17.1653L13.5825 17.1575C13.5715 17.1465 13.5637 17.1414 13.5601 17.1389C13.5566 17.1366 13.554 17.1352 13.5513 17.1341C13.5479 17.1327 13.5246 17.1233 13.4663 17.1233C13.4094 17.1233 13.3766 17.1287 13.312 17.1927C13.2959 17.2088 13.2933 17.2174 13.2915 17.222C13.2888 17.2289 13.2788 17.2594 13.2788 17.3284C13.2788 17.3976 13.2889 17.4281 13.2915 17.4348C13.2933 17.4394 13.2968 17.447 13.313 17.4632L16.3989 20.5491C16.4439 20.5941 16.4716 20.608 16.48 20.6116C16.4866 20.6144 16.5006 20.6194 16.5337 20.6194C16.5668 20.6194 16.5807 20.6145 16.5874 20.6116C16.5955 20.6081 16.623 20.5946 16.6685 20.5491L22.77 14.4485C22.7916 14.4269 22.8034 14.4104 22.8101 14.4007C22.8165 14.3912 22.8194 14.386 22.8198 14.385C22.8201 14.3843 22.8204 14.3833 22.8208 14.3811C22.8213 14.3784 22.8223 14.3698 22.8218 14.3538C22.8193 14.2767 22.8014 14.2242 22.7476 14.1595C22.6871 14.1048 22.6448 14.0929 22.5815 14.0911C22.5432 14.09 22.5289 14.0957 22.5259 14.097Z" fill="#171219" stroke="white" stroke-width="2.46085"/>
</svg>
